<svg width="20" height="20" viewBox="0 0 20 20" fill="none" xmlns="http://www.w3.org/2000/svg">
<path d="M17.0466 4.69194H14.7445V4.54093C14.7445 2.03703 12.7074 0 10.2035 0H9.82148C7.31759 0 5.28055 2.03708 5.28055 4.54093V4.69194H2.95346C2.61801 4.69194 2.34595 4.96392 2.34595 5.29941V19.3925C2.34595 19.7281 2.61801 20 2.95346 20H17.0466C17.3821 20 17.6541 19.728 17.6541 19.3925V5.29941C17.6541 4.96387 17.3821 4.69194 17.0466 4.69194ZM6.71452 4.54093C6.71452 2.82778 8.10829 1.43397 9.82148 1.43397H10.2035C11.9167 1.43397 13.3044 2.82778 13.3044 4.54093L13.3036 6.02563C13.3036 6.42153 12.9867 6.74243 12.5908 6.74243C12.1949 6.74243 11.874 6.42149 11.874 6.02563C11.874 6.02398 11.8743 6.02232 11.8743 6.02066L11.8736 4.69198H8.14796V6.02066H8.14771C8.14771 6.02232 8.14796 6.02398 8.14796 6.02563C8.14796 6.42153 7.82702 6.74243 7.43116 6.74243C7.03526 6.74243 6.71435 6.42149 6.71435 6.02563L6.71452 4.54093Z" fill="black"/>
</svg>
